<mxfile host="app.diagrams.net" modified="2023-12-21T05:20:29.275Z" agent="Mozilla/5.0 (Macintosh; Intel Mac OS X 10_15_7) AppleWebKit/537.36 (KHTML, like Gecko) Chrome/118.0.0.0 Safari/537.36" etag="OMtUopsfF4_rUHZJNR2Y" version="22.1.11" type="github">
  <diagram name="Page-1" id="ZJ2tSFtmsV79LyoC_LMJ">
    <mxGraphModel dx="2047" dy="1333" grid="0" gridSize="10" guides="1" tooltips="1" connect="1" arrows="1" fold="1" page="0" pageScale="1" pageWidth="850" pageHeight="1100" math="0" shadow="0">
      <root>
        <mxCell id="0" />
        <mxCell id="1" parent="0" />
        <mxCell id="-WEr5ObmBIVdhraFoUeo-31" value="Region" style="points=[[0,0],[0.25,0],[0.5,0],[0.75,0],[1,0],[1,0.25],[1,0.5],[1,0.75],[1,1],[0.75,1],[0.5,1],[0.25,1],[0,1],[0,0.75],[0,0.5],[0,0.25]];outlineConnect=0;gradientColor=none;html=1;whiteSpace=wrap;fontSize=12;fontStyle=0;container=1;pointerEvents=0;collapsible=0;recursiveResize=0;shape=mxgraph.aws4.group;grIcon=mxgraph.aws4.group_region;strokeColor=#00A4A6;fillColor=none;verticalAlign=top;align=left;spacingLeft=30;fontColor=#147EBA;dashed=1;fontFamily=Helvetica;" vertex="1" parent="1">
          <mxGeometry x="90" y="387" width="763" height="542" as="geometry" />
        </mxCell>
        <mxCell id="-WEr5ObmBIVdhraFoUeo-35" value="VPC" style="points=[[0,0],[0.25,0],[0.5,0],[0.75,0],[1,0],[1,0.25],[1,0.5],[1,0.75],[1,1],[0.75,1],[0.5,1],[0.25,1],[0,1],[0,0.75],[0,0.5],[0,0.25]];outlineConnect=0;gradientColor=none;html=1;whiteSpace=wrap;fontSize=12;fontStyle=0;container=1;pointerEvents=0;collapsible=0;recursiveResize=0;shape=mxgraph.aws4.group;grIcon=mxgraph.aws4.group_vpc2;strokeColor=#8C4FFF;fillColor=none;verticalAlign=top;align=left;spacingLeft=30;fontColor=#AAB7B8;dashed=0;fontFamily=Helvetica;" vertex="1" parent="1">
          <mxGeometry x="152" y="420" width="654" height="486" as="geometry" />
        </mxCell>
        <mxCell id="-WEr5ObmBIVdhraFoUeo-36" value="Availability zone" style="sketch=0;outlineConnect=0;gradientColor=none;html=1;whiteSpace=wrap;fontSize=12;fontStyle=0;shape=mxgraph.aws4.group;grIcon=mxgraph.aws4.group_availability_zone;strokeColor=#545B64;fillColor=none;verticalAlign=top;align=left;spacingLeft=30;fontColor=#545B64;dashed=1;pointerEvents=0;fontFamily=Helvetica;" vertex="1" parent="-WEr5ObmBIVdhraFoUeo-35">
          <mxGeometry x="137" y="49" width="475" height="183" as="geometry" />
        </mxCell>
        <mxCell id="-WEr5ObmBIVdhraFoUeo-34" value="Availability zone" style="sketch=0;outlineConnect=0;gradientColor=none;html=1;whiteSpace=wrap;fontSize=12;fontStyle=0;shape=mxgraph.aws4.group;grIcon=mxgraph.aws4.group_availability_zone;strokeColor=#545B64;fillColor=none;verticalAlign=top;align=left;spacingLeft=30;fontColor=#545B64;dashed=1;pointerEvents=0;fontFamily=Helvetica;" vertex="1" parent="-WEr5ObmBIVdhraFoUeo-35">
          <mxGeometry x="132" y="289" width="470.5" height="179" as="geometry" />
        </mxCell>
        <mxCell id="-WEr5ObmBIVdhraFoUeo-87" value="Public subnet" style="points=[[0,0],[0.25,0],[0.5,0],[0.75,0],[1,0],[1,0.25],[1,0.5],[1,0.75],[1,1],[0.75,1],[0.5,1],[0.25,1],[0,1],[0,0.75],[0,0.5],[0,0.25]];outlineConnect=0;gradientColor=none;html=1;whiteSpace=wrap;fontSize=12;fontStyle=0;container=1;pointerEvents=0;collapsible=0;recursiveResize=0;shape=mxgraph.aws4.group;grIcon=mxgraph.aws4.group_security_group;grStroke=0;strokeColor=#7AA116;fillColor=#F2F6E8;verticalAlign=top;align=left;spacingLeft=30;fontColor=#248814;dashed=0;fontFamily=Helvetica;" vertex="1" parent="-WEr5ObmBIVdhraFoUeo-35">
          <mxGeometry x="152" y="82" width="130" height="130" as="geometry" />
        </mxCell>
        <mxCell id="-WEr5ObmBIVdhraFoUeo-99" value="NAT gateway" style="sketch=0;outlineConnect=0;fontColor=#232F3E;gradientColor=none;strokeColor=#232F3E;fillColor=#ffffff;dashed=0;verticalLabelPosition=bottom;verticalAlign=top;align=center;html=1;fontSize=12;fontStyle=0;aspect=fixed;shape=mxgraph.aws4.resourceIcon;resIcon=mxgraph.aws4.nat_gateway;pointerEvents=0;spacingLeft=30;fontFamily=Helvetica;" vertex="1" parent="-WEr5ObmBIVdhraFoUeo-87">
          <mxGeometry x="21" y="33" width="34" height="34" as="geometry" />
        </mxCell>
        <mxCell id="-WEr5ObmBIVdhraFoUeo-88" value="Public subnet" style="points=[[0,0],[0.25,0],[0.5,0],[0.75,0],[1,0],[1,0.25],[1,0.5],[1,0.75],[1,1],[0.75,1],[0.5,1],[0.25,1],[0,1],[0,0.75],[0,0.5],[0,0.25]];outlineConnect=0;gradientColor=none;html=1;whiteSpace=wrap;fontSize=12;fontStyle=0;container=1;pointerEvents=0;collapsible=0;recursiveResize=0;shape=mxgraph.aws4.group;grIcon=mxgraph.aws4.group_security_group;grStroke=0;strokeColor=#7AA116;fillColor=#F2F6E8;verticalAlign=top;align=left;spacingLeft=30;fontColor=#248814;dashed=0;fontFamily=Helvetica;" vertex="1" parent="-WEr5ObmBIVdhraFoUeo-35">
          <mxGeometry x="154" y="319" width="130" height="130" as="geometry" />
        </mxCell>
        <mxCell id="-WEr5ObmBIVdhraFoUeo-100" value="NAT gateway" style="sketch=0;outlineConnect=0;fontColor=#232F3E;gradientColor=none;strokeColor=#232F3E;fillColor=#ffffff;dashed=0;verticalLabelPosition=bottom;verticalAlign=top;align=center;html=1;fontSize=12;fontStyle=0;aspect=fixed;shape=mxgraph.aws4.resourceIcon;resIcon=mxgraph.aws4.nat_gateway;pointerEvents=0;spacingLeft=30;fontFamily=Helvetica;" vertex="1" parent="-WEr5ObmBIVdhraFoUeo-88">
          <mxGeometry x="40" y="35" width="34" height="34" as="geometry" />
        </mxCell>
        <mxCell id="-WEr5ObmBIVdhraFoUeo-89" value="Private subnet" style="points=[[0,0],[0.25,0],[0.5,0],[0.75,0],[1,0],[1,0.25],[1,0.5],[1,0.75],[1,1],[0.75,1],[0.5,1],[0.25,1],[0,1],[0,0.75],[0,0.5],[0,0.25]];outlineConnect=0;gradientColor=none;html=1;whiteSpace=wrap;fontSize=12;fontStyle=0;container=1;pointerEvents=0;collapsible=0;recursiveResize=0;shape=mxgraph.aws4.group;grIcon=mxgraph.aws4.group_security_group;grStroke=0;strokeColor=#00A4A6;fillColor=#E6F6F7;verticalAlign=top;align=left;spacingLeft=30;fontColor=#147EBA;dashed=0;fontFamily=Helvetica;" vertex="1" parent="-WEr5ObmBIVdhraFoUeo-35">
          <mxGeometry x="357" y="321" width="222" height="130" as="geometry" />
        </mxCell>
        <mxCell id="-WEr5ObmBIVdhraFoUeo-114" value="" style="rounded=0;whiteSpace=wrap;html=1;dashed=0;pointerEvents=0;strokeColor=#8C4FFF;align=left;verticalAlign=top;spacingLeft=30;fontFamily=Helvetica;fontSize=12;fontColor=#AAB7B8;fillColor=none;gradientColor=none;" vertex="1" parent="-WEr5ObmBIVdhraFoUeo-89">
          <mxGeometry x="21" y="25" width="184" height="100" as="geometry" />
        </mxCell>
        <mxCell id="-WEr5ObmBIVdhraFoUeo-136" value="Container 1" style="sketch=0;outlineConnect=0;fontColor=#232F3E;gradientColor=none;strokeColor=#232F3E;fillColor=#ffffff;dashed=0;verticalLabelPosition=bottom;verticalAlign=top;align=center;html=1;fontSize=12;fontStyle=0;aspect=fixed;shape=mxgraph.aws4.resourceIcon;resIcon=mxgraph.aws4.container_1;pointerEvents=0;spacingLeft=30;fontFamily=Helvetica;" vertex="1" parent="-WEr5ObmBIVdhraFoUeo-89">
          <mxGeometry x="55" y="45.5" width="39" height="39" as="geometry" />
        </mxCell>
        <mxCell id="-WEr5ObmBIVdhraFoUeo-137" value="Container 2" style="sketch=0;outlineConnect=0;fontColor=#232F3E;gradientColor=none;strokeColor=#232F3E;fillColor=#ffffff;dashed=0;verticalLabelPosition=bottom;verticalAlign=top;align=center;html=1;fontSize=12;fontStyle=0;aspect=fixed;shape=mxgraph.aws4.resourceIcon;resIcon=mxgraph.aws4.container_2;pointerEvents=0;spacingLeft=30;fontFamily=Helvetica;" vertex="1" parent="-WEr5ObmBIVdhraFoUeo-89">
          <mxGeometry x="125" y="38.5" width="46" height="46" as="geometry" />
        </mxCell>
        <mxCell id="-WEr5ObmBIVdhraFoUeo-138" value="" style="sketch=0;points=[[0,0,0],[0.25,0,0],[0.5,0,0],[0.75,0,0],[1,0,0],[0,1,0],[0.25,1,0],[0.5,1,0],[0.75,1,0],[1,1,0],[0,0.25,0],[0,0.5,0],[0,0.75,0],[1,0.25,0],[1,0.5,0],[1,0.75,0]];outlineConnect=0;fontColor=#232F3E;fillColor=#ED7100;strokeColor=#ffffff;dashed=0;verticalLabelPosition=bottom;verticalAlign=top;align=center;html=1;fontSize=12;fontStyle=0;aspect=fixed;shape=mxgraph.aws4.resourceIcon;resIcon=mxgraph.aws4.fargate;pointerEvents=0;spacingLeft=30;fontFamily=Helvetica;" vertex="1" parent="-WEr5ObmBIVdhraFoUeo-89">
          <mxGeometry x="117" width="37" height="37" as="geometry" />
        </mxCell>
        <mxCell id="-WEr5ObmBIVdhraFoUeo-139" value="&lt;font face=&quot;Verdana&quot; color=&quot;#b81a1f&quot;&gt;ECS Fargate cluster&lt;/font&gt;" style="text;html=1;strokeColor=none;fillColor=none;align=center;verticalAlign=middle;whiteSpace=wrap;rounded=0;fontSize=12;fontFamily=Helvetica;fontColor=#AAB7B8;" vertex="1" parent="-WEr5ObmBIVdhraFoUeo-89">
          <mxGeometry x="156" y="-2" width="60" height="30" as="geometry" />
        </mxCell>
        <mxCell id="-WEr5ObmBIVdhraFoUeo-135" value="&lt;font color=&quot;#b81838&quot;&gt;Task&lt;/font&gt;" style="text;html=1;strokeColor=none;fillColor=none;align=center;verticalAlign=middle;whiteSpace=wrap;rounded=0;fontSize=12;fontFamily=Helvetica;fontColor=#AAB7B8;" vertex="1" parent="-WEr5ObmBIVdhraFoUeo-89">
          <mxGeometry x="44.5" y="18" width="60" height="30" as="geometry" />
        </mxCell>
        <mxCell id="-WEr5ObmBIVdhraFoUeo-134" value="" style="sketch=0;outlineConnect=0;fontColor=#232F3E;gradientColor=none;fillColor=#ED7100;strokeColor=none;dashed=0;verticalLabelPosition=bottom;verticalAlign=top;align=center;html=1;fontSize=12;fontStyle=0;aspect=fixed;pointerEvents=1;shape=mxgraph.aws4.ecs_task;spacingLeft=30;fontFamily=Helvetica;" vertex="1" parent="-WEr5ObmBIVdhraFoUeo-89">
          <mxGeometry x="26" y="18" width="26.21" height="34" as="geometry" />
        </mxCell>
        <mxCell id="-WEr5ObmBIVdhraFoUeo-90" value="Private subnet" style="points=[[0,0],[0.25,0],[0.5,0],[0.75,0],[1,0],[1,0.25],[1,0.5],[1,0.75],[1,1],[0.75,1],[0.5,1],[0.25,1],[0,1],[0,0.75],[0,0.5],[0,0.25]];outlineConnect=0;gradientColor=none;html=1;whiteSpace=wrap;fontSize=12;fontStyle=0;container=1;pointerEvents=0;collapsible=0;recursiveResize=0;shape=mxgraph.aws4.group;grIcon=mxgraph.aws4.group_security_group;grStroke=0;strokeColor=#00A4A6;fillColor=#E6F6F7;verticalAlign=top;align=left;spacingLeft=30;fontColor=#147EBA;dashed=0;fontFamily=Helvetica;" vertex="1" parent="-WEr5ObmBIVdhraFoUeo-35">
          <mxGeometry x="361" y="82" width="225" height="140" as="geometry" />
        </mxCell>
        <mxCell id="-WEr5ObmBIVdhraFoUeo-126" value="" style="sketch=0;outlineConnect=0;fontColor=#232F3E;gradientColor=none;fillColor=#ED7100;strokeColor=none;dashed=0;verticalLabelPosition=bottom;verticalAlign=top;align=center;html=1;fontSize=12;fontStyle=0;aspect=fixed;pointerEvents=1;shape=mxgraph.aws4.ecs_task;spacingLeft=30;fontFamily=Helvetica;" vertex="1" parent="-WEr5ObmBIVdhraFoUeo-90">
          <mxGeometry x="26" y="28" width="33.15" height="43" as="geometry" />
        </mxCell>
        <mxCell id="-WEr5ObmBIVdhraFoUeo-127" value="&lt;font color=&quot;#b81838&quot;&gt;Task&lt;/font&gt;" style="text;html=1;strokeColor=none;fillColor=none;align=center;verticalAlign=middle;whiteSpace=wrap;rounded=0;fontSize=12;fontFamily=Helvetica;fontColor=#AAB7B8;" vertex="1" parent="-WEr5ObmBIVdhraFoUeo-90">
          <mxGeometry x="41" y="17" width="60" height="30" as="geometry" />
        </mxCell>
        <mxCell id="-WEr5ObmBIVdhraFoUeo-128" value="Container 1" style="sketch=0;outlineConnect=0;fontColor=#232F3E;gradientColor=none;strokeColor=#232F3E;fillColor=#ffffff;dashed=0;verticalLabelPosition=bottom;verticalAlign=top;align=center;html=1;fontSize=12;fontStyle=0;aspect=fixed;shape=mxgraph.aws4.resourceIcon;resIcon=mxgraph.aws4.container_1;pointerEvents=0;spacingLeft=30;fontFamily=Helvetica;" vertex="1" parent="-WEr5ObmBIVdhraFoUeo-90">
          <mxGeometry x="67" y="60" width="39" height="39" as="geometry" />
        </mxCell>
        <mxCell id="-WEr5ObmBIVdhraFoUeo-129" value="Container 2" style="sketch=0;outlineConnect=0;fontColor=#232F3E;gradientColor=none;strokeColor=#232F3E;fillColor=#ffffff;dashed=0;verticalLabelPosition=bottom;verticalAlign=top;align=center;html=1;fontSize=12;fontStyle=0;aspect=fixed;shape=mxgraph.aws4.resourceIcon;resIcon=mxgraph.aws4.container_2;pointerEvents=0;spacingLeft=30;fontFamily=Helvetica;" vertex="1" parent="-WEr5ObmBIVdhraFoUeo-90">
          <mxGeometry x="129" y="52" width="46" height="46" as="geometry" />
        </mxCell>
        <mxCell id="-WEr5ObmBIVdhraFoUeo-130" value="" style="sketch=0;points=[[0,0,0],[0.25,0,0],[0.5,0,0],[0.75,0,0],[1,0,0],[0,1,0],[0.25,1,0],[0.5,1,0],[0.75,1,0],[1,1,0],[0,0.25,0],[0,0.5,0],[0,0.75,0],[1,0.25,0],[1,0.5,0],[1,0.75,0]];outlineConnect=0;fontColor=#232F3E;fillColor=#ED7100;strokeColor=#ffffff;dashed=0;verticalLabelPosition=bottom;verticalAlign=top;align=center;html=1;fontSize=12;fontStyle=0;aspect=fixed;shape=mxgraph.aws4.resourceIcon;resIcon=mxgraph.aws4.fargate;pointerEvents=0;spacingLeft=30;fontFamily=Helvetica;" vertex="1" parent="-WEr5ObmBIVdhraFoUeo-90">
          <mxGeometry x="106" y="6" width="37" height="37" as="geometry" />
        </mxCell>
        <mxCell id="-WEr5ObmBIVdhraFoUeo-132" value="&lt;font face=&quot;Verdana&quot; color=&quot;#b81a1f&quot;&gt;ECS Fargate cluster&lt;/font&gt;" style="text;html=1;strokeColor=none;fillColor=none;align=center;verticalAlign=middle;whiteSpace=wrap;rounded=0;fontSize=12;fontFamily=Helvetica;fontColor=#AAB7B8;" vertex="1" parent="-WEr5ObmBIVdhraFoUeo-90">
          <mxGeometry x="143" y="3" width="60" height="30" as="geometry" />
        </mxCell>
        <mxCell id="-WEr5ObmBIVdhraFoUeo-98" value="Application Load Balancer" style="sketch=0;outlineConnect=0;fontColor=#232F3E;gradientColor=none;strokeColor=#ffffff;fillColor=#232F3E;dashed=0;verticalLabelPosition=middle;verticalAlign=bottom;align=center;html=1;whiteSpace=wrap;fontSize=10;fontStyle=1;spacing=3;shape=mxgraph.aws4.productIcon;prIcon=mxgraph.aws4.application_load_balancer;pointerEvents=0;spacingLeft=30;fontFamily=Helvetica;movable=0;resizable=0;rotatable=0;deletable=0;editable=0;locked=1;connectable=0;" vertex="1" parent="-WEr5ObmBIVdhraFoUeo-35">
          <mxGeometry x="282" y="206" width="65" height="105" as="geometry" />
        </mxCell>
        <mxCell id="-WEr5ObmBIVdhraFoUeo-106" value="" style="edgeStyle=orthogonalEdgeStyle;rounded=0;orthogonalLoop=1;jettySize=auto;html=1;fontFamily=Helvetica;fontSize=12;fontColor=#AAB7B8;" edge="1" parent="-WEr5ObmBIVdhraFoUeo-35" source="-WEr5ObmBIVdhraFoUeo-105">
          <mxGeometry relative="1" as="geometry">
            <mxPoint x="280" y="243" as="targetPoint" />
            <Array as="points">
              <mxPoint x="54" y="243" />
              <mxPoint x="54" y="243" />
            </Array>
          </mxGeometry>
        </mxCell>
        <mxCell id="-WEr5ObmBIVdhraFoUeo-105" value="" style="sketch=0;outlineConnect=0;fontColor=#232F3E;gradientColor=none;fillColor=#232F3D;strokeColor=none;dashed=0;verticalLabelPosition=bottom;verticalAlign=top;align=center;html=1;fontSize=12;fontStyle=0;aspect=fixed;pointerEvents=1;shape=mxgraph.aws4.internet_alt22;spacingLeft=30;fontFamily=Helvetica;direction=south;" vertex="1" parent="-WEr5ObmBIVdhraFoUeo-35">
          <mxGeometry x="-40" y="201" width="77" height="77" as="geometry" />
        </mxCell>
        <mxCell id="-WEr5ObmBIVdhraFoUeo-142" value="&lt;font color=&quot;#b81c3b&quot;&gt;Internet Gateway&lt;/font&gt;" style="text;html=1;strokeColor=none;fillColor=none;align=center;verticalAlign=middle;whiteSpace=wrap;rounded=0;fontSize=12;fontFamily=Helvetica;fontColor=#AAB7B8;" vertex="1" parent="-WEr5ObmBIVdhraFoUeo-35">
          <mxGeometry x="20" y="248" width="60" height="41" as="geometry" />
        </mxCell>
        <mxCell id="-WEr5ObmBIVdhraFoUeo-44" value="&lt;h1&gt;Infra Deployment using Terraform and AWS services&lt;/h1&gt;" style="text;html=1;strokeColor=none;fillColor=none;spacing=5;spacingTop=-20;whiteSpace=wrap;overflow=hidden;rounded=0;" vertex="1" parent="1">
          <mxGeometry x="154" y="308" width="543" height="33" as="geometry" />
        </mxCell>
        <mxCell id="-WEr5ObmBIVdhraFoUeo-77" value="" style="edgeStyle=orthogonalEdgeStyle;rounded=0;orthogonalLoop=1;jettySize=auto;html=1;" edge="1" parent="1" source="-WEr5ObmBIVdhraFoUeo-78" target="-WEr5ObmBIVdhraFoUeo-80">
          <mxGeometry relative="1" as="geometry">
            <Array as="points">
              <mxPoint x="252" y="198" />
              <mxPoint x="252" y="198" />
            </Array>
          </mxGeometry>
        </mxCell>
        <mxCell id="-WEr5ObmBIVdhraFoUeo-78" value="" style="dashed=0;outlineConnect=0;html=1;align=center;labelPosition=center;verticalLabelPosition=bottom;verticalAlign=top;shape=mxgraph.weblogos.github" vertex="1" parent="1">
          <mxGeometry x="145" y="160" width="75" height="75" as="geometry" />
        </mxCell>
        <mxCell id="-WEr5ObmBIVdhraFoUeo-79" value="" style="edgeStyle=orthogonalEdgeStyle;rounded=0;orthogonalLoop=1;jettySize=auto;html=1;" edge="1" parent="1" source="-WEr5ObmBIVdhraFoUeo-80" target="-WEr5ObmBIVdhraFoUeo-82">
          <mxGeometry relative="1" as="geometry">
            <Array as="points">
              <mxPoint x="355" y="196" />
              <mxPoint x="355" y="196" />
            </Array>
          </mxGeometry>
        </mxCell>
        <mxCell id="-WEr5ObmBIVdhraFoUeo-80" value="AWS CodeBuild" style="sketch=0;outlineConnect=0;fontColor=#232F3E;gradientColor=none;strokeColor=#ffffff;fillColor=#232F3E;dashed=0;verticalLabelPosition=middle;verticalAlign=bottom;align=center;html=1;whiteSpace=wrap;fontSize=10;fontStyle=1;spacing=3;shape=mxgraph.aws4.productIcon;prIcon=mxgraph.aws4.codebuild;" vertex="1" parent="1">
          <mxGeometry x="260" y="154" width="79" height="110" as="geometry" />
        </mxCell>
        <mxCell id="-WEr5ObmBIVdhraFoUeo-81" value="" style="edgeStyle=orthogonalEdgeStyle;rounded=0;orthogonalLoop=1;jettySize=auto;html=1;" edge="1" parent="1" source="-WEr5ObmBIVdhraFoUeo-82" target="-WEr5ObmBIVdhraFoUeo-83">
          <mxGeometry relative="1" as="geometry">
            <Array as="points">
              <mxPoint x="468" y="198" />
              <mxPoint x="468" y="198" />
            </Array>
          </mxGeometry>
        </mxCell>
        <mxCell id="-WEr5ObmBIVdhraFoUeo-82" value="AWS CodePipeline" style="sketch=0;outlineConnect=0;fontColor=#232F3E;gradientColor=none;strokeColor=#ffffff;fillColor=#232F3E;dashed=0;verticalLabelPosition=middle;verticalAlign=bottom;align=center;html=1;whiteSpace=wrap;fontSize=10;fontStyle=1;spacing=3;shape=mxgraph.aws4.productIcon;prIcon=mxgraph.aws4.codepipeline;" vertex="1" parent="1">
          <mxGeometry x="373" y="154" width="80" height="110" as="geometry" />
        </mxCell>
        <mxCell id="-WEr5ObmBIVdhraFoUeo-149" value="" style="edgeStyle=orthogonalEdgeStyle;rounded=0;orthogonalLoop=1;jettySize=auto;html=1;fontFamily=Helvetica;fontSize=12;fontColor=#AAB7B8;" edge="1" parent="1" source="-WEr5ObmBIVdhraFoUeo-83">
          <mxGeometry relative="1" as="geometry">
            <mxPoint x="710" y="469" as="targetPoint" />
          </mxGeometry>
        </mxCell>
        <mxCell id="-WEr5ObmBIVdhraFoUeo-83" value="Amazon ECR" style="sketch=0;outlineConnect=0;fontColor=#232F3E;gradientColor=none;strokeColor=#ffffff;fillColor=#232F3E;dashed=0;verticalLabelPosition=middle;verticalAlign=bottom;align=center;html=1;whiteSpace=wrap;fontSize=10;fontStyle=1;spacing=3;shape=mxgraph.aws4.productIcon;prIcon=mxgraph.aws4.ecr;" vertex="1" parent="1">
          <mxGeometry x="530" y="147.5" width="80" height="100" as="geometry" />
        </mxCell>
        <mxCell id="-WEr5ObmBIVdhraFoUeo-84" value="push images" style="text;html=1;strokeColor=none;fillColor=none;align=center;verticalAlign=middle;whiteSpace=wrap;rounded=0;" vertex="1" parent="1">
          <mxGeometry x="459" y="160" width="60" height="30" as="geometry" />
        </mxCell>
        <mxCell id="-WEr5ObmBIVdhraFoUeo-85" value="&lt;h1&gt;CodePipeline with buildspec.yml&lt;/h1&gt;" style="text;html=1;strokeColor=none;fillColor=none;spacing=5;spacingTop=-20;whiteSpace=wrap;overflow=hidden;rounded=0;" vertex="1" parent="1">
          <mxGeometry x="203" y="45" width="457" height="33" as="geometry" />
        </mxCell>
        <mxCell id="-WEr5ObmBIVdhraFoUeo-86" value="" style="rounded=1;arcSize=10;dashed=1;fillColor=none;gradientColor=none;dashPattern=1 1;strokeWidth=2;pointerEvents=0;strokeColor=#8C4FFF;align=left;verticalAlign=top;spacingLeft=30;fontFamily=Helvetica;fontSize=12;fontColor=#AAB7B8;html=1;" vertex="1" parent="1">
          <mxGeometry x="114" y="33" width="621" height="240.5" as="geometry" />
        </mxCell>
        <mxCell id="-WEr5ObmBIVdhraFoUeo-133" value="" style="rounded=0;whiteSpace=wrap;html=1;dashed=0;pointerEvents=0;strokeColor=#8C4FFF;align=left;verticalAlign=top;spacingLeft=30;fontFamily=Helvetica;fontSize=12;fontColor=#AAB7B8;fillColor=none;gradientColor=none;" vertex="1" parent="1">
          <mxGeometry x="542" y="551" width="184" height="100" as="geometry" />
        </mxCell>
        <mxCell id="-WEr5ObmBIVdhraFoUeo-151" value="&lt;font face=&quot;Verdana&quot; color=&quot;#b8183d&quot;&gt;Deploy code on ECS Fargate cluster&lt;/font&gt;" style="text;html=1;strokeColor=none;fillColor=none;align=center;verticalAlign=middle;whiteSpace=wrap;rounded=0;fontSize=12;fontFamily=Helvetica;fontColor=#AAB7B8;" vertex="1" parent="1">
          <mxGeometry x="722" y="285" width="142" height="67" as="geometry" />
        </mxCell>
        <mxCell id="-WEr5ObmBIVdhraFoUeo-153" value="&lt;font face=&quot;Verdana&quot; color=&quot;#030314&quot;&gt;nodejs+express+mysql Docker application code&amp;nbsp;&lt;/font&gt;" style="text;html=1;align=center;verticalAlign=middle;whiteSpace=wrap;rounded=0;fontSize=12;fontFamily=Helvetica;" vertex="1" parent="1">
          <mxGeometry x="127" y="109" width="148" height="51" as="geometry" />
        </mxCell>
        <mxCell id="-WEr5ObmBIVdhraFoUeo-154" value="&lt;font color=&quot;#00000f&quot; face=&quot;Verdana&quot;&gt;Application access through load balancer DNS&lt;br&gt;as Route53 not created&lt;br&gt;&lt;/font&gt;" style="text;html=1;strokeColor=none;fillColor=none;align=center;verticalAlign=middle;whiteSpace=wrap;rounded=0;fontSize=12;fontFamily=Helvetica;fontColor=#AAB7B8;" vertex="1" parent="1">
          <mxGeometry x="-46" y="638" width="113" height="137" as="geometry" />
        </mxCell>
        <mxCell id="-WEr5ObmBIVdhraFoUeo-155" value="&lt;h3&gt;&lt;font color=&quot;#33001a&quot; face=&quot;Verdana&quot;&gt;- Deepika Kanwar&lt;/font&gt;&lt;/h3&gt;" style="text;html=1;strokeColor=none;fillColor=none;align=center;verticalAlign=middle;whiteSpace=wrap;rounded=0;fontSize=12;fontFamily=Helvetica;fontColor=#AAB7B8;" vertex="1" parent="1">
          <mxGeometry x="639" y="-7" width="169" height="30" as="geometry" />
        </mxCell>
        <mxCell id="-WEr5ObmBIVdhraFoUeo-156" value="&lt;b&gt;&lt;font face=&quot;Georgia&quot; color=&quot;#070808&quot;&gt;Docker Compose is used for building the images&amp;nbsp;&lt;/font&gt;&lt;/b&gt;" style="text;html=1;strokeColor=none;fillColor=none;align=center;verticalAlign=middle;whiteSpace=wrap;rounded=0;fontSize=12;fontFamily=Helvetica;fontColor=#AAB7B8;" vertex="1" parent="1">
          <mxGeometry x="775" y="117.5" width="301" height="30" as="geometry" />
        </mxCell>
      </root>
    </mxGraphModel>
  </diagram>
</mxfile>
